<?xml version="1.0" encoding="UTF-8"?>
<svg xmlns="http://www.w3.org/2000/svg" xmlns:xlink="http://www.w3.org/1999/xlink" width="4001" height="4001" viewBox="0 0 4001 4001">
<path fill-rule="evenodd" fill="rgb(29.026794%, 24.705505%, 9.397888%)" fill-opacity="1" d="M 1670.421875 2752.140625 C 1670.421875 2764.140625 1660.691406 2773.878906 1648.679688 2773.878906 C 1636.679688 2773.878906 1626.949219 2764.140625 1626.949219 2752.140625 C 1626.949219 2722.210938 1639.078125 2695.121094 1658.691406 2675.511719 C 1678.300781 2655.890625 1705.398438 2643.761719 1735.328125 2643.761719 C 1765.25 2643.761719 1792.351562 2655.890625 1811.960938 2675.511719 C 1831.578125 2695.121094 1843.710938 2722.21875 1843.710938 2752.140625 C 1843.710938 2764.140625 1833.980469 2773.878906 1821.96875 2773.878906 C 1809.96875 2773.878906 1800.238281 2764.140625 1800.238281 2752.140625 C 1800.238281 2734.21875 1792.96875 2717.988281 1781.230469 2706.238281 C 1769.480469 2694.5 1753.25 2687.230469 1735.328125 2687.230469 C 1717.398438 2687.230469 1701.171875 2694.5 1689.429688 2706.238281 C 1677.679688 2717.980469 1670.421875 2734.21875 1670.421875 2752.140625 "/>
<path fill-rule="evenodd" fill="rgb(100%, 52.146912%, 36.473083%)" fill-opacity="1" d="M 1597.898438 2817.101562 C 1632.601562 2817.101562 1660.730469 2845.238281 1660.730469 2879.941406 C 1660.730469 2914.640625 1632.601562 2942.769531 1597.898438 2942.769531 C 1563.199219 2942.769531 1535.070312 2914.640625 1535.070312 2879.941406 C 1535.070312 2845.238281 1563.199219 2817.101562 1597.898438 2817.101562 "/>
<path fill-rule="evenodd" fill="rgb(29.026794%, 24.705505%, 9.397888%)" fill-opacity="1" d="M 2373.171875 2752.140625 C 2373.171875 2764.140625 2363.441406 2773.878906 2351.441406 2773.878906 C 2339.429688 2773.878906 2329.699219 2764.140625 2329.699219 2752.140625 C 2329.699219 2734.21875 2322.441406 2717.988281 2310.691406 2706.238281 C 2298.949219 2694.5 2282.71875 2687.230469 2264.789062 2687.230469 C 2246.871094 2687.230469 2230.628906 2694.5 2218.890625 2706.238281 C 2207.148438 2717.980469 2199.878906 2734.21875 2199.878906 2752.140625 C 2199.878906 2764.140625 2190.148438 2773.878906 2178.148438 2773.878906 C 2166.140625 2773.878906 2156.410156 2764.140625 2156.410156 2752.140625 C 2156.410156 2722.210938 2168.539062 2695.121094 2188.160156 2675.511719 C 2207.769531 2655.890625 2234.859375 2643.761719 2264.789062 2643.761719 C 2294.71875 2643.761719 2321.808594 2655.890625 2341.429688 2675.511719 C 2361.039062 2695.121094 2373.171875 2722.21875 2373.171875 2752.140625 "/>
<path fill-rule="evenodd" fill="rgb(0%, 0%, 0%)" fill-opacity="1" d="M 2181.929688 2984.101562 C 2168.320312 3072.296875 2092.078125 3139.835938 2000.058594 3139.835938 C 1908.039062 3139.835938 1831.800781 3072.296875 1818.191406 2984.101562 C 1817.058594 2976.769531 1818.988281 2970.011719 1823.820312 2964.378906 C 1828.648438 2958.75 1835.03125 2955.820312 1842.441406 2955.820312 L 2157.679688 2955.820312 C 2165.089844 2955.820312 2171.46875 2958.75 2176.300781 2964.378906 C 2181.128906 2970.011719 2183.058594 2976.769531 2181.929688 2984.101562 "/>
<path fill-rule="evenodd" fill="rgb(29.026794%, 24.705505%, 9.397888%)" fill-opacity="1" d="M 2000.058594 2955.820312 L 1842.441406 2955.820312 C 1835.03125 2955.820312 1828.648438 2958.75 1823.820312 2964.378906 C 1818.988281 2970.011719 1817.058594 2976.769531 1818.191406 2984.101562 C 1831.800781 3072.296875 1908.039062 3139.835938 2000.058594 3139.835938 C 2092.078125 3139.835938 2168.320312 3072.296875 2181.929688 2984.101562 C 2183.058594 2976.769531 2181.128906 2970.011719 2176.300781 2964.378906 C 2171.46875 2958.75 2165.089844 2955.820312 2157.679688 2955.820312 L 2000.058594 2955.820312 "/>
<path fill-rule="evenodd" fill="rgb(100%, 100%, 100%)" fill-opacity="1" d="M 2000.058594 2955.820312 L 2123.53125 2955.820312 C 2123.53125 2974.371094 2108.351562 2989.558594 2089.789062 2989.558594 L 1910.328125 2989.558594 C 1891.769531 2989.558594 1876.589844 2974.371094 1876.589844 2955.820312 L 2000.058594 2955.820312 "/>
<path fill-rule="evenodd" fill="rgb(100%, 52.146912%, 36.473083%)" fill-opacity="1" d="M 2077.5 3065.4375 C 2049.289062 3065.4375 2022.839844 3072.988281 2000.058594 3086.167969 C 1977.28125 3072.988281 1950.828125 3065.4375 1922.621094 3065.4375 C 1901.171875 3065.4375 1880.738281 3069.796875 1862.171875 3077.675781 C 1895.890625 3115.796875 1945.160156 3139.835938 2000.058594 3139.835938 C 2054.949219 3139.835938 2104.230469 3115.796875 2137.949219 3077.675781 C 2119.378906 3069.796875 2098.949219 3065.4375 2077.5 3065.4375 "/>
<path fill-rule="evenodd" fill="rgb(100%, 52.146912%, 36.473083%)" fill-opacity="1" d="M 2402.21875 2817.101562 C 2367.519531 2817.101562 2339.390625 2845.238281 2339.390625 2879.941406 C 2339.390625 2914.640625 2367.519531 2942.769531 2402.21875 2942.769531 C 2436.921875 2942.769531 2465.050781 2914.640625 2465.050781 2879.941406 C 2465.050781 2845.238281 2436.921875 2817.101562 2402.21875 2817.101562 "/>
<path fill-rule="evenodd" fill="rgb(61.521912%, 31.762695%, 1.959229%)" fill-opacity="1" d="M 1624.851562 788.851562 L 2000.058594 788.851562 L 2000.058594 1273.699219 L 1624.851562 1273.699219 L 1624.851562 788.851562 "/>
<path fill-rule="evenodd" fill="rgb(61.521912%, 31.762695%, 1.959229%)" fill-opacity="1" d="M 2000.058594 788.851562 L 2375.269531 788.851562 L 2375.269531 1273.699219 L 2000.058594 1273.699219 L 2000.058594 788.851562 "/>
<path fill-rule="evenodd" fill="rgb(61.521912%, 31.762695%, 1.959229%)" fill-opacity="1" d="M 2375.269531 788.851562 L 2750.488281 788.851562 L 2750.488281 1273.699219 L 2375.269531 1273.699219 L 2375.269531 788.851562 "/>
<path fill-rule="evenodd" fill="rgb(49.021912%, 25.488281%, 5.099487%)" fill-opacity="1" d="M 1668.398438 832.410156 L 1956.5 832.410156 L 1956.5 1230.148438 L 1668.398438 1230.148438 L 1668.398438 832.410156 "/>
<path fill-rule="evenodd" fill="rgb(49.021912%, 25.488281%, 5.099487%)" fill-opacity="1" d="M 2043.609375 832.410156 L 2331.71875 832.410156 L 2331.71875 1230.148438 L 2043.609375 1230.148438 L 2043.609375 832.410156 "/>
<path fill-rule="evenodd" fill="rgb(49.021912%, 25.488281%, 5.099487%)" fill-opacity="1" d="M 2418.828125 832.410156 L 2706.929688 832.410156 L 2706.929688 1230.148438 L 2418.828125 1230.148438 L 2418.828125 832.410156 "/>
<path fill-rule="evenodd" fill="rgb(35.693359%, 14.109802%, 1.959229%)" fill-opacity="1" d="M 1668.398438 1230.148438 L 1624.851562 1273.699219 L 2000.058594 1273.699219 L 2000.058594 788.851562 L 1956.5 832.410156 L 1956.5 1230.148438 L 1668.398438 1230.148438 "/>
<path fill-rule="evenodd" fill="rgb(35.693359%, 14.109802%, 1.959229%)" fill-opacity="1" d="M 2043.609375 1230.148438 L 2000.058594 1273.699219 L 2375.269531 1273.699219 L 2375.269531 788.851562 L 2331.71875 832.410156 L 2331.71875 1230.148438 L 2043.609375 1230.148438 "/>
<path fill-rule="evenodd" fill="rgb(35.693359%, 14.109802%, 1.959229%)" fill-opacity="1" d="M 2418.828125 1230.148438 L 2375.269531 1273.699219 L 2750.488281 1273.699219 L 2750.488281 788.851562 L 2706.929688 832.410156 L 2706.929688 1230.148438 L 2418.828125 1230.148438 "/>
<path fill-rule="evenodd" fill="rgb(61.521912%, 31.762695%, 1.959229%)" fill-opacity="1" d="M 1249.628906 1273.699219 L 1624.851562 1273.699219 L 1624.851562 1758.550781 L 1249.628906 1758.550781 L 1249.628906 1273.699219 "/>
<path fill-rule="evenodd" fill="rgb(49.021912%, 25.488281%, 5.099487%)" fill-opacity="1" d="M 1293.191406 1317.261719 L 1581.289062 1317.261719 L 1581.289062 1714.988281 L 1293.191406 1714.988281 L 1293.191406 1317.261719 "/>
<path fill-rule="evenodd" fill="rgb(35.693359%, 14.109802%, 1.959229%)" fill-opacity="1" d="M 1293.191406 1714.988281 L 1249.628906 1758.550781 L 1624.851562 1758.550781 L 1624.851562 1273.699219 L 1581.289062 1317.261719 L 1581.289062 1714.988281 L 1293.191406 1714.988281 "/>
<path fill-rule="evenodd" fill="rgb(61.521912%, 31.762695%, 1.959229%)" fill-opacity="1" d="M 1624.851562 1273.699219 L 2000.058594 1273.699219 L 2000.058594 1758.550781 L 1624.851562 1758.550781 L 1624.851562 1273.699219 "/>
<path fill-rule="evenodd" fill="rgb(61.521912%, 31.762695%, 1.959229%)" fill-opacity="1" d="M 2000.058594 1273.699219 L 2375.269531 1273.699219 L 2375.269531 1758.550781 L 2000.058594 1758.550781 L 2000.058594 1273.699219 "/>
<path fill-rule="evenodd" fill="rgb(61.521912%, 31.762695%, 1.959229%)" fill-opacity="1" d="M 2375.269531 1273.699219 L 2750.488281 1273.699219 L 2750.488281 1758.550781 L 2375.269531 1758.550781 L 2375.269531 1273.699219 "/>
<path fill-rule="evenodd" fill="rgb(49.021912%, 25.488281%, 5.099487%)" fill-opacity="1" d="M 1668.398438 1317.261719 L 1956.5 1317.261719 L 1956.5 1714.988281 L 1668.398438 1714.988281 L 1668.398438 1317.261719 "/>
<path fill-rule="evenodd" fill="rgb(49.021912%, 25.488281%, 5.099487%)" fill-opacity="1" d="M 2043.609375 1317.261719 L 2331.71875 1317.261719 L 2331.71875 1714.988281 L 2043.609375 1714.988281 L 2043.609375 1317.261719 "/>
<path fill-rule="evenodd" fill="rgb(49.021912%, 25.488281%, 5.099487%)" fill-opacity="1" d="M 2418.828125 1317.261719 L 2706.929688 1317.261719 L 2706.929688 1714.988281 L 2418.828125 1714.988281 L 2418.828125 1317.261719 "/>
<path fill-rule="evenodd" fill="rgb(35.693359%, 14.109802%, 1.959229%)" fill-opacity="1" d="M 1668.398438 1714.988281 L 1624.851562 1758.550781 L 2000.058594 1758.550781 L 2000.058594 1273.699219 L 1956.5 1317.261719 L 1956.5 1714.988281 L 1668.398438 1714.988281 "/>
<path fill-rule="evenodd" fill="rgb(35.693359%, 14.109802%, 1.959229%)" fill-opacity="1" d="M 2043.609375 1714.988281 L 2000.058594 1758.550781 L 2375.269531 1758.550781 L 2375.269531 1273.699219 L 2331.71875 1317.261719 L 2331.71875 1714.988281 L 2043.609375 1714.988281 "/>
<path fill-rule="evenodd" fill="rgb(35.693359%, 14.109802%, 1.959229%)" fill-opacity="1" d="M 2418.828125 1714.988281 L 2375.269531 1758.550781 L 2750.488281 1758.550781 L 2750.488281 1273.699219 L 2706.929688 1317.261719 L 2706.929688 1714.988281 L 2418.828125 1714.988281 "/>
<path fill-rule="evenodd" fill="rgb(61.521912%, 31.762695%, 1.959229%)" fill-opacity="1" d="M 1249.628906 1758.550781 L 1624.851562 1758.550781 L 1624.851562 2243.390625 L 1249.628906 2243.390625 L 1249.628906 1758.550781 "/>
<path fill-rule="evenodd" fill="rgb(49.021912%, 25.488281%, 5.099487%)" fill-opacity="1" d="M 1293.191406 1802.101562 L 1581.289062 1802.101562 L 1581.289062 2199.839844 L 1293.191406 2199.839844 L 1293.191406 1802.101562 "/>
<path fill-rule="evenodd" fill="rgb(35.693359%, 14.109802%, 1.959229%)" fill-opacity="1" d="M 1293.191406 2199.839844 L 1249.628906 2243.390625 L 1624.851562 2243.390625 L 1624.851562 1758.550781 L 1581.289062 1802.101562 L 1581.289062 2199.839844 L 1293.191406 2199.839844 "/>
<path fill-rule="evenodd" fill="rgb(61.521912%, 31.762695%, 1.959229%)" fill-opacity="1" d="M 1624.851562 1758.550781 L 2000.058594 1758.550781 L 2000.058594 2243.390625 L 1624.851562 2243.390625 L 1624.851562 1758.550781 "/>
<path fill-rule="evenodd" fill="rgb(61.521912%, 31.762695%, 1.959229%)" fill-opacity="1" d="M 2000.058594 1758.550781 L 2375.269531 1758.550781 L 2375.269531 2243.390625 L 2000.058594 2243.390625 L 2000.058594 1758.550781 "/>
<path fill-rule="evenodd" fill="rgb(61.521912%, 31.762695%, 1.959229%)" fill-opacity="1" d="M 2375.269531 1758.550781 L 2750.488281 1758.550781 L 2750.488281 2243.390625 L 2375.269531 2243.390625 L 2375.269531 1758.550781 "/>
<path fill-rule="evenodd" fill="rgb(49.021912%, 25.488281%, 5.099487%)" fill-opacity="1" d="M 1668.398438 1802.101562 L 1956.5 1802.101562 L 1956.5 2199.839844 L 1668.398438 2199.839844 L 1668.398438 1802.101562 "/>
<path fill-rule="evenodd" fill="rgb(49.021912%, 25.488281%, 5.099487%)" fill-opacity="1" d="M 2043.609375 1802.101562 L 2331.71875 1802.101562 L 2331.71875 2199.839844 L 2043.609375 2199.839844 L 2043.609375 1802.101562 "/>
<path fill-rule="evenodd" fill="rgb(49.021912%, 25.488281%, 5.099487%)" fill-opacity="1" d="M 2418.828125 1802.101562 L 2706.929688 1802.101562 L 2706.929688 2199.839844 L 2418.828125 2199.839844 L 2418.828125 1802.101562 "/>
<path fill-rule="evenodd" fill="rgb(35.693359%, 14.109802%, 1.959229%)" fill-opacity="1" d="M 1668.398438 2199.839844 L 1624.851562 2243.390625 L 2000.058594 2243.390625 L 2000.058594 1758.550781 L 1956.5 1802.101562 L 1956.5 2199.839844 L 1668.398438 2199.839844 "/>
<path fill-rule="evenodd" fill="rgb(35.693359%, 14.109802%, 1.959229%)" fill-opacity="1" d="M 2043.609375 2199.839844 L 2000.058594 2243.390625 L 2375.269531 2243.390625 L 2375.269531 1758.550781 L 2331.71875 1802.101562 L 2331.71875 2199.839844 L 2043.609375 2199.839844 "/>
<path fill-rule="evenodd" fill="rgb(35.693359%, 14.109802%, 1.959229%)" fill-opacity="1" d="M 2418.828125 2199.839844 L 2375.269531 2243.390625 L 2750.488281 2243.390625 L 2750.488281 1758.550781 L 2706.929688 1802.101562 L 2706.929688 2199.839844 L 2418.828125 2199.839844 "/>
<path fill-rule="evenodd" fill="rgb(61.521912%, 31.762695%, 1.959229%)" fill-opacity="1" d="M 1249.628906 2243.390625 L 1624.851562 2243.390625 L 1624.851562 2728.238281 L 1249.628906 2728.238281 L 1249.628906 2243.390625 "/>
<path fill-rule="evenodd" fill="rgb(49.021912%, 25.488281%, 5.099487%)" fill-opacity="1" d="M 1293.191406 2286.949219 L 1581.289062 2286.949219 L 1581.289062 2684.679688 L 1293.191406 2684.679688 L 1293.191406 2286.949219 "/>
<path fill-rule="evenodd" fill="rgb(35.693359%, 14.109802%, 1.959229%)" fill-opacity="1" d="M 1293.191406 2684.679688 L 1249.628906 2728.238281 L 1624.851562 2728.238281 L 1624.851562 2243.390625 L 1581.289062 2286.949219 L 1581.289062 2684.679688 L 1293.191406 2684.679688 "/>
<path fill-rule="evenodd" fill="rgb(61.521912%, 31.762695%, 1.959229%)" fill-opacity="1" d="M 1624.851562 2243.390625 L 2000.058594 2243.390625 L 2000.058594 2728.238281 L 1624.851562 2728.238281 L 1624.851562 2243.390625 "/>
<path fill-rule="evenodd" fill="rgb(61.521912%, 31.762695%, 1.959229%)" fill-opacity="1" d="M 2000.058594 2243.390625 L 2375.269531 2243.390625 L 2375.269531 2728.238281 L 2000.058594 2728.238281 L 2000.058594 2243.390625 "/>
<path fill-rule="evenodd" fill="rgb(61.521912%, 31.762695%, 1.959229%)" fill-opacity="1" d="M 2375.269531 2243.390625 L 2750.488281 2243.390625 L 2750.488281 2728.238281 L 2375.269531 2728.238281 L 2375.269531 2243.390625 "/>
<path fill-rule="evenodd" fill="rgb(49.021912%, 25.488281%, 5.099487%)" fill-opacity="1" d="M 1668.398438 2286.949219 L 1956.5 2286.949219 L 1956.5 2684.679688 L 1668.398438 2684.679688 L 1668.398438 2286.949219 "/>
<path fill-rule="evenodd" fill="rgb(49.021912%, 25.488281%, 5.099487%)" fill-opacity="1" d="M 2043.609375 2286.949219 L 2331.71875 2286.949219 L 2331.71875 2684.679688 L 2043.609375 2684.679688 L 2043.609375 2286.949219 "/>
<path fill-rule="evenodd" fill="rgb(49.021912%, 25.488281%, 5.099487%)" fill-opacity="1" d="M 2418.828125 2286.949219 L 2706.929688 2286.949219 L 2706.929688 2684.679688 L 2418.828125 2684.679688 L 2418.828125 2286.949219 "/>
<path fill-rule="evenodd" fill="rgb(35.693359%, 14.109802%, 1.959229%)" fill-opacity="1" d="M 1668.398438 2684.679688 L 1624.851562 2728.238281 L 2000.058594 2728.238281 L 2000.058594 2243.390625 L 1956.5 2286.949219 L 1956.5 2684.679688 L 1668.398438 2684.679688 "/>
<path fill-rule="evenodd" fill="rgb(35.693359%, 14.109802%, 1.959229%)" fill-opacity="1" d="M 2043.609375 2684.679688 L 2000.058594 2728.238281 L 2375.269531 2728.238281 L 2375.269531 2243.390625 L 2331.71875 2286.949219 L 2331.71875 2684.679688 L 2043.609375 2684.679688 "/>
<path fill-rule="evenodd" fill="rgb(35.693359%, 14.109802%, 1.959229%)" fill-opacity="1" d="M 2418.828125 2684.679688 L 2375.269531 2728.238281 L 2750.488281 2728.238281 L 2750.488281 2243.390625 L 2706.929688 2286.949219 L 2706.929688 2684.679688 L 2418.828125 2684.679688 "/>
<path fill-rule="evenodd" fill="rgb(61.521912%, 31.762695%, 1.959229%)" fill-opacity="1" d="M 1249.628906 788.851562 L 1624.851562 788.851562 L 1624.851562 1273.699219 L 1249.628906 1273.699219 L 1249.628906 788.851562 "/>
<path fill-rule="evenodd" fill="rgb(49.021912%, 25.488281%, 5.099487%)" fill-opacity="1" d="M 1293.191406 832.410156 L 1581.289062 832.410156 L 1581.289062 1230.148438 L 1293.191406 1230.148438 L 1293.191406 832.410156 "/>
<path fill-rule="evenodd" fill="rgb(35.693359%, 14.109802%, 1.959229%)" fill-opacity="1" d="M 1293.191406 1230.148438 L 1249.628906 1273.699219 L 1624.851562 1273.699219 L 1624.851562 788.851562 L 1581.289062 832.410156 L 1581.289062 1230.148438 L 1293.191406 1230.148438 "/>
<path fill-rule="evenodd" fill="rgb(61.521912%, 31.762695%, 1.959229%)" fill-opacity="1" d="M 1249.628906 2728.238281 L 1624.851562 2728.238281 L 1624.851562 3213.078125 L 1249.628906 3213.078125 L 1249.628906 2728.238281 "/>
<path fill-rule="evenodd" fill="rgb(49.021912%, 25.488281%, 5.099487%)" fill-opacity="1" d="M 1293.191406 2771.789062 L 1581.289062 2771.789062 L 1581.289062 3169.527344 L 1293.191406 3169.527344 L 1293.191406 2771.789062 "/>
<path fill-rule="evenodd" fill="rgb(35.693359%, 14.109802%, 1.959229%)" fill-opacity="1" d="M 1293.191406 3169.527344 L 1249.628906 3213.078125 L 1624.851562 3213.078125 L 1624.851562 2728.238281 L 1581.289062 2771.789062 L 1581.289062 3169.527344 L 1293.191406 3169.527344 "/>
<path fill-rule="evenodd" fill="rgb(61.521912%, 31.762695%, 1.959229%)" fill-opacity="1" d="M 1624.851562 2728.238281 L 2000.058594 2728.238281 L 2000.058594 3213.078125 L 1624.851562 3213.078125 L 1624.851562 2728.238281 "/>
<path fill-rule="evenodd" fill="rgb(61.521912%, 31.762695%, 1.959229%)" fill-opacity="1" d="M 2000.058594 2728.238281 L 2375.269531 2728.238281 L 2375.269531 3213.078125 L 2000.058594 3213.078125 L 2000.058594 2728.238281 "/>
<path fill-rule="evenodd" fill="rgb(61.521912%, 31.762695%, 1.959229%)" fill-opacity="1" d="M 2375.269531 2728.238281 L 2750.488281 2728.238281 L 2750.488281 3213.078125 L 2375.269531 3213.078125 L 2375.269531 2728.238281 "/>
<path fill-rule="evenodd" fill="rgb(49.021912%, 25.488281%, 5.099487%)" fill-opacity="1" d="M 1668.398438 2771.789062 L 1956.5 2771.789062 L 1956.5 3169.527344 L 1668.398438 3169.527344 L 1668.398438 2771.789062 "/>
<path fill-rule="evenodd" fill="rgb(49.021912%, 25.488281%, 5.099487%)" fill-opacity="1" d="M 2043.609375 2771.789062 L 2331.71875 2771.789062 L 2331.71875 3169.527344 L 2043.609375 3169.527344 L 2043.609375 2771.789062 "/>
<path fill-rule="evenodd" fill="rgb(49.021912%, 25.488281%, 5.099487%)" fill-opacity="1" d="M 2418.828125 2771.789062 L 2706.929688 2771.789062 L 2706.929688 3169.527344 L 2418.828125 3169.527344 L 2418.828125 2771.789062 "/>
<path fill-rule="evenodd" fill="rgb(35.693359%, 14.109802%, 1.959229%)" fill-opacity="1" d="M 1668.398438 3169.527344 L 1624.851562 3213.078125 L 2000.058594 3213.078125 L 2000.058594 2728.238281 L 1956.5 2771.789062 L 1956.5 3169.527344 L 1668.398438 3169.527344 "/>
<path fill-rule="evenodd" fill="rgb(35.693359%, 14.109802%, 1.959229%)" fill-opacity="1" d="M 2043.609375 3169.527344 L 2000.058594 3213.078125 L 2375.269531 3213.078125 L 2375.269531 2728.238281 L 2331.71875 2771.789062 L 2331.71875 3169.527344 L 2043.609375 3169.527344 "/>
<path fill-rule="evenodd" fill="rgb(35.693359%, 14.109802%, 1.959229%)" fill-opacity="1" d="M 2418.828125 3169.527344 L 2375.269531 3213.078125 L 2750.488281 3213.078125 L 2750.488281 2728.238281 L 2706.929688 2771.789062 L 2706.929688 3169.527344 L 2418.828125 3169.527344 "/>
</svg>
