<?xml version="1.0" standalone="no"?>
<!DOCTYPE svg PUBLIC "-//W3C//DTD SVG 20010904//EN"
 "http://www.w3.org/TR/2001/REC-SVG-20010904/DTD/svg10.dtd">
<svg version="1.0" xmlns="http://www.w3.org/2000/svg"
 width="1280.000000pt" height="1214.000000pt" viewBox="0 0 1280.000000 1214.000000"
 preserveAspectRatio="xMidYMid meet">
<metadata>
Created by potrace 1.15, written by Peter Selinger 2001-2017
</metadata>
<g transform="translate(0.000000,1214.000000) scale(0.100000,-0.100000)"
fill="#000000" stroke="none">
<path d="M6135 11991 c-143 -81 -991 -561 -1885 -1066 -894 -504 -2140 -1208
-2769 -1564 l-1143 -646 3031 -3 c1667 -1 4395 -1 6062 0 l3032 3 -3032 1713
c-1667 941 -3032 1712 -3033 1711 -2 0 -120 -67 -263 -148z"/>
<path d="M1150 4916 l0 -3105 -573 -903 -574 -903 3199 -3 c1759 -1 4638 -1
6397 0 l3199 3 -574 905 -574 904 0 3103 0 3103 -820 0 -820 0 0 -3105 0
-3105 -655 0 -655 0 0 3105 0 3105 -820 0 -820 0 0 -3105 0 -3105 -655 0 -655
0 0 3105 0 3105 -825 0 -825 0 0 -3105 0 -3105 -655 0 -655 0 0 3105 0 3105
-820 0 -820 0 0 -3104z"/>
</g>
</svg>
